Coordinates
version=1
nRows=32
nColumns=12
inDegrees=yes

Units are S.I. units (second, meters, Newtons, ...)
Angles are in degrees

endheader
time	SC_y	SC_z	SC_x	AC_y	AC_z	AC_x	GH_y	GH_z	GH_yy	EL_x	PS_y
       0.0              -36.59          36.36          76.35          66.67          8.701          0.871         -76.46           84.7         -64.62          102.1          53.22
   0.03378              -36.59          36.36          76.34          66.66            8.7         0.8715         -76.43          84.69         -64.63          102.1          53.22
   0.06756              -36.59          36.36          76.33          66.66            8.7         0.8722         -76.41          84.67         -64.65          102.1          53.22
    0.1013              -36.59          36.36          76.33          66.65          8.699         0.8728         -76.38          84.66         -64.67          102.1          53.22
    0.1351              -36.59          36.36          76.32          66.65          8.698         0.8735         -76.36          84.65         -64.69          102.1          53.21
    0.1689              -36.59          36.35          76.31          66.64          8.697         0.8742         -76.33          84.63         -64.71          102.1          53.21
    0.2027              -36.59          36.35           76.3          66.64          8.696          0.875          -76.3          84.61         -64.73          102.1          53.21
    0.2364              -36.59          36.35          76.29          66.63          8.695         0.8758         -76.26           84.6         -64.76          102.1          53.21
    0.2702               -36.6          36.35          76.28          66.62          8.694         0.8767         -76.23          84.58         -64.78          102.1          53.21
     0.304               -36.6          36.35          76.27          66.62          8.693         0.8776         -76.19          84.56         -64.81          102.1          53.21
    0.3378               -36.6          36.34          76.25          66.61          8.692         0.8787         -76.15          84.53         -64.84          102.1          53.21
    0.3716               -36.6          36.34          76.24           66.6           8.69         0.8798         -76.11          84.51         -64.87          102.1          53.21
    0.4053               -36.6          36.34          76.22          66.59          8.689          0.881         -76.06          84.48         -64.91          102.1          53.21
    0.4391               -36.6          36.34          76.21          66.58          8.687         0.8822         -76.01          84.46         -64.95          102.1          53.21
    0.4729              -36.61          36.33          76.19          66.57          8.686         0.8836         -75.96          84.43         -64.99          102.1           53.2
    0.5067              -36.61          36.33          76.17          66.56          8.684         0.8851          -75.9          84.39         -65.03          102.1           53.2
    0.5404              -36.61          36.33          76.15          66.54          8.682         0.8868         -75.83          84.36         -65.08          102.1           53.2
    0.5742              -36.62          36.32          76.13          66.53           8.68         0.8886         -75.76          84.32         -65.13          102.1           53.2
     0.608              -36.62          36.32          76.11          66.51          8.677         0.8905         -75.68          84.28         -65.19          102.1           53.2
    0.6418              -36.62          36.31          76.08           66.5          8.675         0.8926          -75.6          84.23         -65.25          102.1          53.19
    0.6756              -36.63          36.31          76.05          66.48          8.672          0.895         -75.51          84.18         -65.32          102.1          53.19
    0.7093              -36.63           36.3          76.02          66.46          8.668         0.8976         -75.41          84.12         -65.39          102.1          53.19
    0.7431              -36.64          36.29          75.99          66.44          8.665         0.9004         -75.29          84.06         -65.48          102.1          53.19
    0.7769              -36.64          36.29          75.95          66.41          8.661         0.9035         -75.17          83.99         -65.57          102.1          53.18
    0.8107              -36.65          36.28           75.9          66.38          8.657         0.9071         -75.03          83.92         -65.67          102.1          53.18
    0.8444              -36.65          36.27          75.86          66.35          8.652          0.911         -74.88          83.83         -65.79          102.1          53.17
    0.8782              -36.66          36.26           75.8          66.32          8.647         0.9153          -74.7          83.74         -65.91          102.2          53.17
     0.912              -36.67          36.25          75.74          66.28          8.641         0.9203         -74.51          83.63         -66.06          102.2          53.17
    0.9458              -36.68          36.24          75.67          66.24          8.634         0.9258         -74.29          83.51         -66.22          102.2          53.16
    0.9796              -36.69          36.22           75.6          66.19          8.626         0.9322         -74.04          83.38          -66.4          102.2          53.15
     1.013               -36.7          36.21          75.51          66.13          8.617         0.9394         -73.75          83.22         -66.62          102.2          53.14
     1.047              -36.71          36.19          75.41          66.07          8.607         0.9477         -73.42          83.04         -66.86          102.2          53.14
